HIERARCHY
ROOT WildBoar_ROOTSHJnt
{
	OFFSET 0.000000 44.410820 68.815338
	CHANNELS 6 Xposition Yposition Zposition Xrotation Yrotation Zrotation
	JOINT WildBoar_Spine_01SHJnt
	{
		OFFSET -0.000000 -13.726324 -0.500702
		CHANNELS 3 Xrotation Yrotation Zrotation
		JOINT WildBoar_Spine_02SHJnt
		{
			OFFSET -0.000000 -13.721075 -0.511734
			CHANNELS 3 Xrotation Yrotation Zrotation
			JOINT WildBoar_Spine_03SHJnt
			{
				OFFSET -0.000000 -13.733017 -0.763184
				CHANNELS 3 Xrotation Yrotation Zrotation
				JOINT WildBoar_Spine_04SHJnt
				{
					OFFSET 0.000000 -13.726805 1.066475
					CHANNELS 3 Xrotation Yrotation Zrotation
					JOINT WildBoar_Spine_TopSHJnt
					{
						OFFSET 0.000000 -13.726805 0.709183
						CHANNELS 3 Xrotation Yrotation Zrotation
						JOINT WildBoar_l_Clavicle_01_01SHJnt
						{
							OFFSET 8.670297 0.000000 0.000000
							CHANNELS 3 Xrotation Yrotation Zrotation
							JOINT WildBoar_l_FrontLeg_HipSHJnt
							{
								OFFSET 3.164961 0.548840 -12.164703
								CHANNELS 3 Xrotation Yrotation Zrotation
								JOINT WildBoar_l_FrontLeg_Knee1SHJnt
								{
									OFFSET 0.316314 -0.817221 -32.444130
									CHANNELS 3 Xrotation Yrotation Zrotation
									JOINT WildBoar_l_FrontLeg_Knee2SHJnt
									{
										OFFSET 0.171660 1.067869 -17.603088
										CHANNELS 3 Xrotation Yrotation Zrotation
										JOINT WildBoar_l_FrontLeg_AnkleSHJnt
										{
											OFFSET 0.012912 -0.586981 -1.322436
											CHANNELS 3 Xrotation Yrotation Zrotation
											JOINT WildBoar_l_FrontLeg_BallSHJnt
											{
												OFFSET -0.004807 -3.825893 -5.280976
												CHANNELS 3 Xrotation Yrotation Zrotation
												JOINT WildBoar_l_FrontLeg_ToeSHJnt
												{
													OFFSET -0.006160 -4.905069 -0.000002
													CHANNELS 3 Xrotation Yrotation Zrotation
													End Site
													{
														OFFSET 4.905067 -0.006161 -0.000003
													}
												}
											}
										}
									}
								}
							}
						}
						JOINT WildBoar_r_Clavicle_01_01SHJnt
						{
							OFFSET -8.670297 0.000000 0.000000
							CHANNELS 3 Xrotation Yrotation Zrotation
							JOINT WildBoar_r_FrontLeg_HipSHJnt
							{
								OFFSET -3.164964 0.548840 -12.164703
								CHANNELS 3 Xrotation Yrotation Zrotation
								JOINT WildBoar_r_FrontLeg_Knee1SHJnt
								{
									OFFSET -0.316322 -0.817221 -32.444130
									CHANNELS 3 Xrotation Yrotation Zrotation
									JOINT WildBoar_r_FrontLeg_Knee2SHJnt
									{
										OFFSET -0.171665 1.067869 -17.603088
										CHANNELS 3 Xrotation Yrotation Zrotation
										JOINT WildBoar_r_FrontLeg_AnkleSHJnt
										{
											OFFSET -0.012913 -0.586981 -1.322436
											CHANNELS 3 Xrotation Yrotation Zrotation
											JOINT WildBoar_r_FrontLeg_BallSHJnt
											{
												OFFSET 0.004806 -3.825893 -5.280976
												CHANNELS 3 Xrotation Yrotation Zrotation
												JOINT WildBoar_r_FrontLeg_ToeSHJnt
												{
													OFFSET 0.006160 -4.905069 -0.000002
													CHANNELS 3 Xrotation Yrotation Zrotation
													End Site
													{
														OFFSET 4.905068 0.006161 -0.000002
													}
												}
											}
										}
									}
								}
							}
						}
						JOINT WildBoar_Neck_01SHJnt
						{
							OFFSET -0.000000 -12.476246 -2.105774
							CHANNELS 3 Xrotation Yrotation Zrotation
							JOINT WildBoar_Neck_02SHJnt
							{
								OFFSET 0.000000 -10.017231 1.165779
								CHANNELS 3 Xrotation Yrotation Zrotation
								JOINT WildBoar_Neck_TopSHJnt
								{
									OFFSET 0.000000 -9.610825 0.768044
									CHANNELS 3 Xrotation Yrotation Zrotation
									JOINT WildBoar_Head_JawSHJnt
									{
										OFFSET -0.000001 -11.273338 -4.973049
										CHANNELS 3 Xrotation Yrotation Zrotation
										JOINT WildBoar_Head_JawEndSHJnt
										{
											OFFSET -0.000002 -22.190353 -15.124695
											CHANNELS 3 Xrotation Yrotation Zrotation
											End Site
											{
												OFFSET -0.000002 -22.110291 -15.241497
											}
										}
									}
									JOINT WildBoar_Head_TopSHJnt
									{
										OFFSET 0.000002 -15.944977 17.523094
										CHANNELS 3 Xrotation Yrotation Zrotation
										JOINT WildBoar_l_Ear_01_01SHJnt
										{
											OFFSET 10.362524 11.406597 -2.807991
											CHANNELS 3 Xrotation Yrotation Zrotation
											JOINT WildBoar_l_Ear_01_02SHJnt
											{
												OFFSET 6.918999 -0.514683 5.827293
												CHANNELS 3 Xrotation Yrotation Zrotation
												JOINT WildBoar_l_Ear_01_03SHJnt
												{
													OFFSET 5.957382 0.355659 6.469810
													CHANNELS 3 Xrotation Yrotation Zrotation
													End Site
													{
														OFFSET 5.020468 -6.741234 -2.612671
													}
												}
											}
										}
										JOINT WildBoar_r_Ear_01_01SHJnt
										{
											OFFSET -10.362526 11.406597 -2.807991
											CHANNELS 3 Xrotation Yrotation Zrotation
											JOINT WildBoar_r_Ear_01_02SHJnt
											{
												OFFSET -6.918997 -0.514683 5.827293
												CHANNELS 3 Xrotation Yrotation Zrotation
												JOINT WildBoar_r_Ear_01_03SHJnt
												{
													OFFSET -5.957380 0.355659 6.469810
													CHANNELS 3 Xrotation Yrotation Zrotation
													End Site
													{
														OFFSET -5.020468 -6.741234 -2.612671
													}
												}
											}
										}
										JOINT WildBoar_Nose_01_01SHJnt
										{
											OFFSET 0.146534 -15.145607 -20.472496
											CHANNELS 3 Xrotation Yrotation Zrotation
											JOINT WildBoar_Nose_01_02SHJnt
											{
												OFFSET -0.000001 -9.738365 -5.125526
												CHANNELS 3 Xrotation Yrotation Zrotation
												End Site
												{
													OFFSET 0.000001 -6.131317 9.138596
												}
											}
										}
									}
								}
							}
						}
					}
				}
			}
		}
	}
	JOINT WildBoar_l_HindLeg_HipSHJnt
	{
		OFFSET 11.907801 0.071259 -9.892372
		CHANNELS 3 Xrotation Yrotation Zrotation
		JOINT WildBoar_l_HindLeg_Knee1SHJnt
		{
			OFFSET -1.208079 8.601734 -32.196701
			CHANNELS 3 Xrotation Yrotation Zrotation
			JOINT WildBoar_l_HindLeg_Knee2SHJnt
			{
				OFFSET 0.929813 -5.149776 -18.902822
				CHANNELS 3 Xrotation Yrotation Zrotation
				JOINT WildBoar_l_HindLeg_AnkleSHJnt
				{
					OFFSET -0.016349 -0.419094 -2.601883
					CHANNELS 3 Xrotation Yrotation Zrotation
					JOINT WildBoar_l_HindLeg_BallSHJnt
					{
						OFFSET -0.062816 -2.064716 -5.221140
						CHANNELS 3 Xrotation Yrotation Zrotation
						JOINT WildBoar_l_HindLeg_ToeSHJnt
						{
							OFFSET 0.563698 -5.159508 -0.000093
							CHANNELS 3 Xrotation Yrotation Zrotation
							End Site
							{
								OFFSET 5.159507 0.563698 0.000025
							}
						}
					}
				}
			}
		}
	}
	JOINT WildBoar_r_HindLeg_HipSHJnt
	{
		OFFSET -11.907801 0.071259 -9.892372
		CHANNELS 3 Xrotation Yrotation Zrotation
		JOINT WildBoar_r_HindLeg_Knee1SHJnt
		{
			OFFSET 1.208084 8.601734 -32.196701
			CHANNELS 3 Xrotation Yrotation Zrotation
			JOINT WildBoar_r_HindLeg_Knee2SHJnt
			{
				OFFSET -0.929811 -5.149776 -18.902822
				CHANNELS 3 Xrotation Yrotation Zrotation
				JOINT WildBoar_r_HindLeg_AnkleSHJnt
				{
					OFFSET 0.016349 -0.419094 -2.601883
					CHANNELS 3 Xrotation Yrotation Zrotation
					JOINT WildBoar_r_HindLeg_BallSHJnt
					{
						OFFSET 0.062817 -2.064716 -5.221139
						CHANNELS 3 Xrotation Yrotation Zrotation
						JOINT WildBoar_r_HindLeg_ToeSHJnt
						{
							OFFSET -0.563698 -5.159508 -0.000092
							CHANNELS 3 Xrotation Yrotation Zrotation
							End Site
							{
								OFFSET 5.159507 -0.563698 -0.000023
							}
						}
					}
				}
			}
		}
	}
	JOINT WildBoar_Tail_01_01SHJnt
	{
		OFFSET 0.000000 20.717888 9.172180
		CHANNELS 3 Xrotation Yrotation Zrotation
		JOINT WildBoar_Tail_01_02SHJnt
		{
			OFFSET -0.000000 5.092255 -8.034218
			CHANNELS 3 Xrotation Yrotation Zrotation
			JOINT WildBoar_Tail_01_03SHJnt
			{
				OFFSET -0.000000 -0.708420 -11.714390
				CHANNELS 3 Xrotation Yrotation Zrotation
				End Site
				{
					OFFSET -0.000000 11.707321 -0.816906
				}
			}
		}
	}
}
MOTION
Frames: 4
Frame Time: 0.033333
0.000000 44.410820 68.815338 -0.000000 0.000000 -0.000000 0.000137 -0.000073 0.000002 -0.000000 0.000000 0.000000 0.000000 -0.000010 0.000000 -0.000000 -0.000000 -0.000000 -0.000000 -0.000000 -0.000000 -0.000000 0.000000 -0.000000 -0.000002 0.000007 0.000171 0.000006 -0.000004 0.000003 0.000000 0.000002 0.000001 0.000003 -0.000002 0.000001 -0.000000 -0.000014 0.000000 0.000000 -0.000000 0.000000 -0.000000 0.000000 -0.000000 -0.000001 -0.000003 -0.000061 -0.000000 0.000002 -0.000007 -0.000003 0.000005 -0.000002 0.000000 -0.000002 -0.000003 0.000000 -0.000020 -0.000000 -0.000000 -0.000000 -0.000000 0.000010 -0.087316 0.013233 0.000009 -0.108351 0.016958 0.000010 -0.060919 0.010436 -16.076718 0.000007 -0.000003 -0.000000 0.000000 0.000000 0.000010 -0.000008 -0.000006 -0.000002 0.000003 0.000003 -0.000003 0.000008 0.000003 -0.000001 0.000006 0.000002 -0.000002 -0.000001 -0.000000 0.000005 -0.000002 -0.000007 -0.000004 0.000001 0.000002 -0.000000 0.000000 0.000000 -0.000003 0.000001 0.000001 0.000001 0.000007 0.000001 -0.000006 -0.000003 -0.000001 0.000007 0.000004 -0.000005 -0.000000 -0.000002 0.000001 -0.000000 0.000004 -0.000000 0.000000 0.000000 -0.000000 0.000004 -0.000014 -0.000001 -0.000006 -0.000001 0.000002 0.000007 -0.000004 0.000004 -0.000000 0.000005 -0.000002 0.000001 0.000006 0.000000 -0.000000 0.000000 0.000000 -0.000017 -0.000002 -0.000005 0.000005 0.000000 0.000000 -0.000000 0.000000 0.000000 
0.000000 44.410820 68.815338 -0.000000 0.000000 -0.000000 0.051606 -0.000055 0.013683 -0.035394 0.000006 0.021836 -0.032208 -0.000013 0.005115 -0.035393 -0.000008 0.007434 0.051504 -0.000000 0.004754 -0.000000 0.000000 0.000000 -0.016734 0.034548 -0.067045 0.012904 -0.000004 0.000129 -0.008364 0.000006 -0.001229 0.012037 -0.034607 0.015478 -0.000000 -0.000004 -0.000000 -0.000000 0.000000 0.000000 -0.000000 0.000000 -0.000000 0.016928 0.034637 -0.067392 -0.014214 -0.000001 0.000139 0.009215 0.000009 -0.001233 -0.012008 -0.034628 0.015485 0.000000 -0.000043 -0.000000 0.000000 -0.000000 -0.000000 0.076662 -0.096363 0.038507 0.087036 -0.118424 0.047643 0.006746 -0.064789 0.026262 -16.076720 -0.000007 -0.000005 0.000002 -0.000000 -0.000000 0.000007 -0.000008 -0.000006 0.000007 0.000009 0.000001 0.000002 0.000003 0.000001 -0.000002 0.000009 -0.000003 0.000005 -0.000010 -0.000002 0.000004 0.000001 -0.000000 -0.000003 0.000002 0.000009 -0.000003 0.000000 -0.000000 -0.000002 0.000001 0.000001 0.000001 0.000007 0.000001 -0.000006 -0.000003 -0.000001 0.000007 0.000004 -0.000005 -0.000000 -0.000002 0.000001 -0.000000 0.000004 -0.000000 0.000000 0.000000 -0.000000 0.000004 -0.000014 -0.000001 -0.000006 -0.000001 0.000002 0.000001 -0.000003 0.000003 -0.000001 0.000006 -0.000002 0.000001 0.000006 0.000000 -0.000000 0.000000 0.000000 -0.000017 -0.000002 -0.000005 0.000005 0.000000 0.000000 -0.000000 0.000000 0.000000 
0.000000 44.410820 68.815338 -0.000000 0.000000 -0.000000 0.192223 0.000190 0.052364 -0.132110 0.000089 0.083575 -0.120223 -0.000020 0.019590 -0.132112 -0.000098 0.028419 0.192233 -0.000000 0.018184 0.000000 0.000000 0.000000 -0.061057 0.132502 -0.256716 0.042449 -0.000001 0.000414 -0.027505 -0.000004 -0.004692 0.046346 -0.132332 0.059255 -0.000000 -0.000002 0.000000 0.000000 -0.000000 0.000000 0.000000 -0.000000 0.000000 0.067617 0.132427 -0.257057 -0.061503 -0.000000 0.000600 0.039860 0.000047 -0.004723 -0.045689 -0.132640 0.059253 0.000000 -0.000027 -0.000000 -0.000000 -0.000000 -0.000000 0.284027 -0.121947 0.109975 0.322340 -0.146602 0.134581 0.024872 -0.075672 0.071010 -16.076723 -0.000001 0.000003 -0.000000 0.000000 -0.000000 0.000010 -0.000008 -0.000006 0.000005 0.000012 0.000003 -0.000001 -0.000003 -0.000000 -0.000003 0.000009 0.000007 -0.000000 -0.000001 -0.000000 0.000002 -0.000004 -0.000002 -0.000004 0.000003 0.000005 -0.000000 0.000000 -0.000000 -0.000002 0.000001 0.000001 0.000001 0.000007 0.000001 -0.000006 -0.000003 -0.000001 0.000007 0.000004 -0.000005 -0.000000 -0.000002 0.000001 -0.000000 0.000004 -0.000000 0.000000 0.000000 -0.000000 0.000004 -0.000014 -0.000001 -0.000006 -0.000001 0.000002 0.000001 -0.000003 0.000003 -0.000001 0.000006 -0.000002 0.000001 0.000006 0.000000 -0.000000 0.000000 0.000000 -0.000017 -0.000002 -0.000005 0.000005 0.000000 0.000000 0.000000 0.000000 0.000000 
0.000000 44.410820 68.815338 -0.000000 0.000000 -0.000000 0.402532 0.000820 0.112736 -0.276640 0.000401 0.179941 -0.251757 -0.000100 0.042162 -0.276663 -0.000429 0.061196 0.402538 -0.000001 0.039151 0.000000 0.000000 -0.000000 -0.122101 0.285768 -0.552456 0.068475 -0.000001 0.000668 -0.044326 -0.000078 -0.010082 0.100676 -0.284504 0.127562 -0.000000 -0.000013 0.000000 -0.000000 -0.000000 0.000000 0.000000 -0.000000 -0.000000 0.155295 0.284373 -0.554582 -0.156945 -0.000006 0.001527 0.101728 0.000176 -0.010202 -0.097471 -0.285943 0.127576 0.000000 -0.000013 -0.000000 0.000000 -0.000000 -0.000000 0.589707 -0.161874 0.221555 0.668940 -0.189612 0.270772 0.051530 -0.092663 0.140882 -16.076722 -0.000000 0.000003 0.000002 0.000000 -0.000000 0.000012 -0.000008 -0.000005 0.000000 0.000009 0.000006 -0.000003 0.000003 0.000001 -0.000006 0.000013 -0.000004 0.000006 -0.000009 -0.000001 -0.000002 0.000001 -0.000004 -0.000003 0.000005 0.000004 -0.000002 -0.000000 0.000000 -0.000005 0.000001 0.000001 0.000001 0.000007 0.000001 -0.000006 -0.000003 -0.000001 0.000007 0.000004 -0.000005 -0.000000 -0.000002 0.000001 -0.000000 0.000004 -0.000000 0.000000 0.000000 -0.000000 0.000004 -0.000014 -0.000001 -0.000006 -0.000001 0.000002 0.000007 -0.000004 0.000004 -0.000000 0.000005 -0.000002 0.000001 0.000006 0.000000 0.000000 0.000000 0.000000 -0.000017 -0.000002 -0.000005 0.000005 0.000000 0.000000 -0.000000 0.000000 0.000000 
